<?xml version="1.0" encoding="utf-8"?>
<!-- Generator: Adobe Illustrator 25.0.1, SVG Export Plug-In . SVG Version: 6.00 Build 0)  -->
<svg version="1.1" id="Layer_1" xmlns="http://www.w3.org/2000/svg" xmlns:xlink="http://www.w3.org/1999/xlink" x="0px" y="0px"
	 viewBox="0 0 176 176" style="enable-background:new 0 0 176 176;" xml:space="preserve">
<style type="text/css">
	.st0{fill:#005572;}
</style>
<g id="icon_art">
	<path class="st0" d="M88,175c-1,0-2.1-0.2-3.1-0.7c-22.6-10.5-41.1-31.5-53.4-60.9c-9.6-23-15.1-50.2-15.1-74.8
		c0-2.8,1.6-5.4,4.2-6.6L84.9,1.7c2-0.9,4.2-0.9,6.2,0L155.4,32c2.5,1.2,4.2,3.8,4.2,6.6c0,24.5-5.5,51.8-15.1,74.8
		c-12.3,29.4-30.8,50.4-53.4,60.9C90.1,174.8,89,175,88,175z M88,8C88,8,87.9,8,88,8L23.6,38.4c-0.1,0-0.2,0.1-0.2,0.3
		C23.4,62,28.9,89,38,110.8c8.1,19.3,23.3,45,49.9,57.3c0.1,0,0.1,0,0.2,0c14.7-6.8,35.2-22.2,49.9-57.3
		c9.1-21.8,14.6-48.8,14.6-72.1c0-0.1-0.1-0.2-0.2-0.3L88,8L88,8z"/>
	<path class="st0" d="M112.9,118.8h-50c-2.6,0-4.7-2.1-4.7-4.7V72.8c0-2.6,2.1-4.7,4.7-4.7h50c2.6,0,4.7,2.1,4.7,4.7V114
		C117.6,116.7,115.5,118.8,112.9,118.8z M65.2,111.8h45.4V75.1H65.2V111.8z"/>
	<path class="st0" d="M108.9,75.1h-42V62.8c0-11.6,9.4-21,21-21l0,0c11.6,0,21,9.4,21,21V75.1z M73.9,68.1h28v-5.2
		c0-7.7-6.3-14-14-14v-3.5v3.5c-7.7,0-14,6.3-14,14V68.1z"/>
	<g>
		<path id="Shape-2_1_" class="st0" d="M87.9,91.4c-1.2,0-2.2,1-2.2,2.2s1,2.2,2.2,2.2s2.2-1,2.2-2.2S89.1,91.4,87.9,91.4L87.9,91.4
			L87.9,91.4"/>
		<path class="st0" d="M87.9,99.3c-3.1,0-5.7-2.6-5.7-5.7s2.6-5.7,5.7-5.7s5.7,2.6,5.7,5.7C93.6,96.7,91,99.3,87.9,99.3z M87.9,92.3
			c-0.7,0-1.3,0.6-1.3,1.3c0,0.7,0.6,1.3,1.3,1.3s1.3-0.6,1.3-1.3C89.2,92.9,88.6,92.3,87.9,92.3z"/>
	</g>
</g>
</svg>
